<?xml version="1.0" encoding="utf-8"?>
<!-- Generator: Adobe Illustrator 24.0.0, SVG Export Plug-In . SVG Version: 6.00 Build 0)  -->
<svg version="1.1" id="Layer_1" xmlns="http://www.w3.org/2000/svg" xmlns:xlink="http://www.w3.org/1999/xlink" x="0px" y="0px"
	 viewBox="0 0 80 80" style="enable-background:new 0 0 80 80;" xml:space="preserve">
<style type="text/css">
	.st0{fill:#ED1C24;}
</style>
<g id="Arrows">
	<path class="st0" d="M66.2,65.9h-4.6l3.8,3.8H10.2c-0.9,0-1.6,0.7-1.6,1.6s0.7,1.6,1.6,1.6h55.3l-3.8,3.8h4.6l5.4-5.4L66.2,65.9z"
		/>
	<path class="st0" d="M23.6,8.6l-4.2,1.7l5.2,2.2c-3.9,2.2-7.3,5.4-9.7,9.2c-3,4.6-4.5,9.9-4.5,15.3c0,4,0.8,7.8,2.4,11.5
		c0.3,0.6,0.8,1,1.4,1c0.2,0,0.4,0,0.6-0.1c0.8-0.4,1.2-1.3,0.8-2.1c-1.4-3.2-2.2-6.6-2.2-10.2c0-8.7,4.6-16.8,11.8-21.3l-1.9,4.5
		l4.2-1.7l3-7L23.6,8.6z"/>
	<path class="st0" d="M66.6,39.3c0.1-0.7,0.1-1.5,0.1-2.3c0-7-2.6-13.8-7.3-19s-11.1-8.4-18-9.1c-0.9-0.1-1.7,0.5-1.7,1.4
		c-0.1,0.9,0.5,1.7,1.4,1.7c12.8,1.3,22.5,12,22.5,24.9c0,0.3,0,0.7,0,1L60.9,34l-1,4.5l4.1,6.4l6.4-4.1l1-4.5L66.6,39.3z"/>
	<path class="st0" d="M60.4,52.2c-0.7-0.5-1.7-0.4-2.2,0.3c-4.8,6.1-12,9.6-19.7,9.6c-4.6,0-9-1.2-12.8-3.5l4.8-0.3l-3.4-3l-7.6,0.5
		l0.5,7.6l3.4,3L23,60.7c4.6,3,9.9,4.6,15.4,4.6c8.7,0,16.8-3.9,22.2-10.8C61.3,53.8,61.1,52.8,60.4,52.2z"/>
</g>
<path class="st0" d="M50.1,25.1c-1-1.9-2.6-3.3-4.6-4.3c-2-1-4.4-1.5-7.2-1.5c-2.6,0-4.9,0.4-7,1.3s-3.8,2.1-5.1,3.6l4.9,3.3
	c1-0.7,2.1-1.3,3.4-1.7c1.3-0.4,2.6-0.6,4-0.6c2.2,0,3.9,0.6,5,1.8c1.2,1.2,1.8,3,1.8,5.2v1.4H36c-3.8,0-6.7,0.8-8.6,2.5
	s-2.8,4.2-2.8,7.5c0,3.5,1,6.1,3.1,7.9c2.1,1.7,5.2,2.6,9.4,2.6c1.4,0,2.7-0.1,3.8-0.4c1.1-0.3,2.1-0.7,3-1.3c0.6-0.4,1-0.9,1.5-1.4
	v2.7h6.3V31.9C51.7,29.2,51.1,27,50.1,25.1z M43.5,47.9c-1.3,0.5-3.1,0.8-5.7,0.8c-2.3,0-4.1-0.4-5.2-1.2c-1.1-0.8-1.7-2.1-1.7-3.8
	c0-1.6,0.4-2.8,1.3-3.5C33,39.3,34.3,39,36,39h9.3v6.4C45.3,46.5,44.7,47.4,43.5,47.9z"/>
</svg>
